<svg xmlns="http://www.w3.org/2000/svg" viewBox="0 0 352.03 352.03"><defs><style>.cls-1{fill:#7acde7;}.cls-2{fill:#22b573;}.cls-3{fill:#cdfaa5;}.cls-4{fill:none;stroke:#3c3b73;stroke-miterlimit:10;stroke-width:9px;}</style></defs><title>defaultpic</title><g id="Layer_2" data-name="Layer 2"><g id="Layer_1-2" data-name="Layer 1"><path class="cls-1" d="M313.23,260.34c-2.84-5.16-2.56-9.29-7.15-12.86-7.83-6.1-14.89.18-25.73-4.29-11.78-4.85-9.06-14.61-24.29-22.87-7.07-3.82-10.17-3.09-12.87-7.14-2.12-3.19-2.88-7.68,1.43-24.3,3.83-14.75,5.75-22.13,8.58-25.73,6.15-7.82,16.57-10.56,37.16-15.72,14.6-3.66,17.8-3.2,34.3-7.15,7.38-1.76,13.33-3.18,18.11-4.52a171.08,171.08,0,0,0-35.34-69.95C291.15,74,279.24,89.33,280.35,91.69c.61,1.27,5.15-1.22,11.44,1.43,6.54,2.75,9.66,8.07,11.65,11.57,5.39,9.47,6,20.66,4.07,21.3-2.31.77-8.09-13.87-11.43-12.86-2.59.77.16,9.78-4.29,12.86-3.78,2.61-11.24-.09-15.72-4.29-5.05-4.72-3.25-8.45-8.58-15.72-1.22-1.66-8.27-11.28-14.29-10-5.42,1.15-4.8,10-11.44,17.15-6.4,6.88-16.17,8.49-24.29,8.57-12.43-17-11.44-20-11.44-20,1.62-4.91,9.51-2.79,20-8.57,14.81-8.16,20.32-24.08,20-24.3s-6.52,9.93-10,8.57c-.48-.18-1.23-.69-1.74-2.45-1.2-4.11-2.79-20.79,8.88-36.14a51,51,0,0,1,15.22-13.24A171.6,171.6,0,0,0,79,34.56,80.42,80.42,0,0,0,87.4,57.38C90.88,63.76,94.08,67.81,96,76A70,70,0,0,1,97.4,94.55c-.67,10.59-3.29,12.58-1.42,15.72,3.59,6,16.5,4,22.56,4.46,4.72-4,11.44-8.16,18.88-8.75a29,29,0,0,1,14.3,2.86c3.53,1.68,8.87,4.21,11.43,10s1.41,12.46-1.43,17.16c-4.47,7.39-10.86,5.74-14.29,12.86-2.11,4.38-.29,6.24-1.43,14.29-.35,2.5-1.49,10.52-5.72,17.15-8.77,13.76-27.85,16.84-30,17.16-6.94,1-10.23-.14-15.72,2.85-4.15,2.26-10.49,7.38-10,12.87C85.13,220,96,226,96,226c4.42-22.93-6.2,30.64-4.29,40,1.7,8.37,5,13.94,4.29,14.29-.93.45-5.57-8.48-15.73-22.86-4.94-7-7.41-10.51-8.57-11.44-12.23-9.85-25-.34-37.16-10-3.21-2.55-5.48-6-10-12.87a107,107,0,0,1-8.58-15.72A103.38,103.38,0,0,0,5,189.35,171.44,171.44,0,0,0,83.83,320.67a12.87,12.87,0,0,0,3.57-4.58c4.24-9.13-4.84-15.76-1.43-24.3,5.09-12.73,28.11-5.18,42.88-21.44a28.82,28.82,0,0,0,4.59-6.74l-14.6,6.74,14.6-6.74c4.06-8.25,2.62-15.3,9.7-19,9.84-5.11,17,6.21,41.45,11.44,23,4.9,31.2-2,48.6,7.14,11.58,6.07,14.65,12.64,15.72,15.73a25.69,25.69,0,0,1,0,15.72c-4.38,14.53-17.28,14.46-20,24.3-1.77,6.39,2.28,11.5,7.43,17.66a172.09,172.09,0,0,0,84.08-68A27,27,0,0,1,313.23,260.34Z"/><path class="cls-2" d="M111.7,123.13c.67.88,10.63-4.59,10-7.14-.19-.8-1.38-1.13-3.16-1.26C114,118.68,111.27,122.58,111.7,123.13Z"/><path class="cls-3" d="M24.51,223.18c4.53,6.88,6.8,10.32,10,12.87,12.16,9.66,24.93.15,37.16,10,1.16.93,3.63,4.44,8.57,11.44C90.41,271.87,95.05,280.8,96,280.35c.74-.35-2.59-5.92-4.29-14.29-1.91-9.38,8.71-62.95,4.29-40,0,0-10.85-6.09-11.44-12.86-.48-5.49,5.86-10.61,10-12.87,5.49-3,8.78-1.83,15.72-2.85,2.16-.32,21.24-3.4,30-17.16,4.23-6.63,5.37-14.65,5.72-17.15,1.14-8.05-.68-9.91,1.43-14.29,3.43-7.12,9.82-5.47,14.29-12.86,2.84-4.7,3.95-11.45,1.43-17.16s-7.9-8.32-11.43-10a29,29,0,0,0-14.3-2.86c-7.44.59-14.16,4.7-18.88,8.75,1.78.13,3,.46,3.16,1.26.63,2.55-9.33,8-10,7.14-.43-.55,2.26-4.45,6.84-8.4-6.06-.42-19,1.57-22.56-4.46-1.87-3.14.75-5.13,1.42-15.72A70,70,0,0,0,96,76c-1.9-8.15-5.1-12.2-8.58-18.58A80.42,80.42,0,0,1,79,34.56,171.31,171.31,0,0,0,4.5,176q0,6.72.51,13.33a103.38,103.38,0,0,1,10.92,18.11A107,107,0,0,0,24.51,223.18Z"/><path class="cls-3" d="M228.9,319c2.73-9.84,15.63-9.77,20-24.3a25.69,25.69,0,0,0,0-15.72c-1.07-3.09-4.14-9.66-15.72-15.73-17.4-9.11-25.64-2.24-48.6-7.14-24.44-5.23-31.61-16.55-41.45-11.44-7.08,3.69-5.64,10.74-9.7,19l4-1.84-4,1.84a28.82,28.82,0,0,1-4.59,6.74c-14.77,16.26-37.79,8.71-42.88,21.44-3.41,8.54,5.67,15.17,1.43,24.3a12.87,12.87,0,0,1-3.57,4.58,171.78,171.78,0,0,0,152.5,15.94C231.18,330.45,227.13,325.34,228.9,319Z"/><path class="cls-3" d="M243.19,38.8c-11.67,15.35-10.08,32-8.88,36.14.51,1.76,1.26,2.27,1.74,2.45,3.48,1.36,9.74-8.76,10-8.57s-5.2,16.14-20,24.3c-10.5,5.78-18.39,3.66-20,8.57,0,0-1,3,11.44,20,8.12-.08,17.89-1.69,24.29-8.57,6.64-7.14,6-16,11.44-17.15,6-1.28,13.07,8.34,14.29,10,5.33,7.27,3.53,11,8.58,15.72,4.48,4.2,11.94,6.9,15.72,4.29,4.45-3.08,1.7-12.09,4.29-12.86,3.34-1,9.12,13.63,11.43,12.86,1.92-.64,1.32-11.83-4.07-21.3-2-3.5-5.11-8.82-11.65-11.57C285.5,90.47,281,93,280.35,91.69c-1.11-2.36,10.8-17.74,27.08-25.88a172.13,172.13,0,0,0-49-40.25A51,51,0,0,0,243.19,38.8Z"/><path class="cls-3" d="M342.77,135.76c-4.78,1.34-10.73,2.76-18.11,4.52-16.5,3.95-19.7,3.49-34.3,7.15-20.59,5.16-31,7.9-37.16,15.72-2.83,3.6-4.75,11-8.58,25.73-4.31,16.62-3.55,21.11-1.43,24.3,2.7,4,5.8,3.32,12.87,7.14,15.23,8.26,12.51,18,24.29,22.87,10.84,4.47,17.9-1.81,25.73,4.29,4.59,3.57,4.31,7.7,7.15,12.86a27,27,0,0,0,7.18,8.28,171.93,171.93,0,0,0,22.36-132.86Z"/><path class="cls-4" d="M342.77,135.76A171.53,171.53,0,0,0,4.5,176q0,6.72.51,13.33a171.52,171.52,0,1,0,337.76-53.59Z"/></g></g></svg>