<svg xmlns="http://www.w3.org/2000/svg" xmlns:xlink="http://www.w3.org/1999/xlink" viewBox="0 0 390.85 404.75"><defs><style>.cls-1{fill:#3c3b73;}.cls-2{fill:url(#linear-gradient);}.cls-3{fill:#7acde7;}.cls-4{fill:#22b573;}.cls-5{fill:#cdfaa5;}</style><linearGradient id="linear-gradient" x1="-42.11" y1="90.96" x2="249.25" y2="382.32" gradientUnits="userSpaceOnUse"><stop offset="0" stop-color="#bee2ea"/><stop offset="1" stop-color="#7acde7"/></linearGradient></defs><title>logo</title><g id="Layer_2" data-name="Layer 2"><g id="Layer_1-2" data-name="Layer 1"><path class="cls-1" d="M372,345.46a46.78,46.78,0,0,0-92.26,11c0,1.22.05,2.43.14,3.63A46.78,46.78,0,1,0,372,345.46Z"/><path class="cls-1" d="M230.21,374a31,31,0,0,1-62,0V261.7a52.81,52.81,0,1,0-105.62,0V374a31,31,0,0,1-31.27,30.76C14.36,404.75,0,390.91,0,374V46.87C0,30,14.36,15.59,31.28,15.59A31.4,31.4,0,0,1,62.55,46.87v112.8a114.91,114.91,0,0,1,167.66,102Z"/><path class="cls-2" d="M260.48,358.4a31,31,0,0,1-62,0V246.11a52.81,52.81,0,0,0-105.62,0V358.4a31,31,0,0,1-31.28,30.76c-16.92,0-31.27-13.84-31.27-30.76V31.28C30.27,14.36,44.62,0,61.54,0A31.4,31.4,0,0,1,92.82,31.28v112.8a114.91,114.91,0,0,1,167.66,102Z"/><path class="cls-3" d="M381.49,365.77c-.77-1.41-.69-2.53-1.94-3.51-2.14-1.66-4.07.05-7-1.17-3.22-1.32-2.47-4-6.63-6.24-1.92-1-2.77-.84-3.51-1.94-.57-.87-.78-2.1.39-6.63,1.05-4,1.57-6,2.34-7,1.68-2.13,4.52-2.88,10.14-4.29,4-1,4.85-.87,9.35-2,2-.48,3.64-.86,4.94-1.23a46.69,46.69,0,0,0-9.64-19.08c-4.44,2.22-7.69,6.42-7.38,7.06.16.35,1.4-.33,3.12.39a6.69,6.69,0,0,1,3.18,3.16c1.46,2.58,1.63,5.63,1.11,5.81s-2.21-3.78-3.12-3.51c-.71.21,0,2.67-1.17,3.51-1,.71-3.07,0-4.29-1.17-1.38-1.29-.89-2.31-2.34-4.29-.33-.45-2.26-3.08-3.9-2.73-1.47.31-1.31,2.73-3.12,4.68s-4.41,2.32-6.62,2.34c-3.39-4.64-3.12-5.46-3.12-5.46.44-1.34,2.59-.76,5.46-2.34a12.07,12.07,0,0,0,5.45-6.63c-.07,0-1.78,2.71-2.73,2.34-.12-.05-.33-.19-.47-.67a12.37,12.37,0,0,1,2.42-9.85,13.85,13.85,0,0,1,4.15-3.61,46.77,46.77,0,0,0-48.92,2.45,22,22,0,0,0,2.28,6.23,17.34,17.34,0,0,1,2.34,5.06,19,19,0,0,1,.39,5.07c-.18,2.89-.9,3.43-.39,4.29,1,1.64,4.51,1.1,6.16,1.22a9.33,9.33,0,0,1,5.15-2.39,8,8,0,0,1,3.9.78,5.74,5.74,0,0,1,3.11,2.73,5.22,5.22,0,0,1-.39,4.68c-1.22,2-3,1.56-3.89,3.5-.58,1.2-.08,1.71-.39,3.9a12.25,12.25,0,0,1-1.56,4.68c-2.39,3.75-7.6,4.59-8.19,4.68-1.89.28-2.79,0-4.29.78-1.13.61-2.86,2-2.72,3.51.16,1.84,3.11,3.5,3.11,3.5,1.21-6.25-1.69,8.36-1.17,10.92.47,2.28,1.38,3.8,1.17,3.9s-1.51-2.32-4.28-6.24a27.64,27.64,0,0,0-2.34-3.12c-3.34-2.69-6.82-.09-10.14-2.73a14.54,14.54,0,0,1-2.73-3.51,30.47,30.47,0,0,1-2.34-4.28,28,28,0,0,0-3-4.94,46.71,46.71,0,0,0,21.49,35.81,3.42,3.42,0,0,0,1-1.25c1.16-2.49-1.32-4.3-.39-6.63,1.39-3.47,7.67-1.41,11.7-5.84a7.89,7.89,0,0,0,1.25-1.84l-4,1.84,4-1.84c1.11-2.25.72-4.17,2.65-5.18,2.68-1.39,4.64,1.69,11.3,3.12,6.26,1.34,8.51-.54,13.26,1.95,3.15,1.65,4,3.45,4.28,4.29a6.92,6.92,0,0,1,0,4.28c-1.19,4-4.71,3.95-5.45,6.63-.49,1.75.62,3.14,2,4.82A46.89,46.89,0,0,0,383.45,368,7.66,7.66,0,0,1,381.49,365.77Z"/><path class="cls-4" d="M326.53,328.35c.18.24,2.9-1.26,2.73-2-.05-.22-.38-.31-.86-.34C327.15,327.13,326.42,328.2,326.53,328.35Z"/><path class="cls-5" d="M302.75,355.63a14.54,14.54,0,0,0,2.73,3.51c3.32,2.64,6.8,0,10.14,2.73A27.64,27.64,0,0,1,318,365c2.77,3.92,4,6.36,4.28,6.24s-.7-1.62-1.17-3.9c-.52-2.56,2.38-17.17,1.17-10.92,0,0-2.95-1.66-3.11-3.5-.14-1.5,1.59-2.9,2.72-3.51,1.5-.82,2.4-.5,4.29-.78.59-.09,5.8-.93,8.19-4.68a12.25,12.25,0,0,0,1.56-4.68c.31-2.19-.19-2.7.39-3.9.93-1.94,2.67-1.49,3.89-3.5a5.22,5.22,0,0,0,.39-4.68,5.74,5.74,0,0,0-3.11-2.73,8,8,0,0,0-3.9-.78,9.33,9.33,0,0,0-5.15,2.39c.48,0,.81.12.86.34.17.69-2.55,2.19-2.73,2s.62-1.22,1.87-2.29c-1.65-.12-5.18.42-6.16-1.22-.51-.86.21-1.4.39-4.29a19,19,0,0,0-.39-5.07,17.34,17.34,0,0,0-2.34-5.06,22,22,0,0,1-2.28-6.23,46.72,46.72,0,0,0-20.32,38.58c0,1.22,0,2.44.14,3.64a28,28,0,0,1,3,4.94A30.47,30.47,0,0,0,302.75,355.63Z"/><path class="cls-5" d="M358.5,381.75c.74-2.68,4.26-2.66,5.45-6.63a6.92,6.92,0,0,0,0-4.28c-.29-.84-1.13-2.64-4.28-4.29-4.75-2.49-7-.61-13.26-1.95-6.66-1.43-8.62-4.51-11.3-3.12-1.93,1-1.54,2.93-2.65,5.18l1.09-.5-1.09.5a7.89,7.89,0,0,1-1.25,1.84c-4,4.43-10.31,2.37-11.7,5.84-.93,2.33,1.55,4.14.39,6.63a3.42,3.42,0,0,1-1,1.25,46.82,46.82,0,0,0,41.59,4.35C359.12,384.89,358,383.5,358.5,381.75Z"/><path class="cls-5" d="M362.39,305.35A12.37,12.37,0,0,0,360,315.2c.14.48.35.62.47.67.95.37,2.66-2.39,2.73-2.34a12.07,12.07,0,0,1-5.45,6.63c-2.87,1.58-5,1-5.46,2.34,0,0-.27.82,3.12,5.46,2.21,0,4.88-.46,6.62-2.34s1.65-4.37,3.12-4.68c1.64-.35,3.57,2.28,3.9,2.73,1.45,2,1,3,2.34,4.29,1.22,1.14,3.26,1.88,4.29,1.17,1.21-.84.46-3.3,1.17-3.51.91-.27,2.48,3.72,3.12,3.51s.35-3.23-1.11-5.81a6.69,6.69,0,0,0-3.18-3.16c-1.72-.72-3,0-3.12-.39-.31-.64,2.94-4.84,7.38-7.06a46.81,46.81,0,0,0-13.37-11A13.85,13.85,0,0,0,362.39,305.35Z"/><path class="cls-5" d="M389.55,331.79c-1.3.37-2.93.75-4.94,1.23-4.5,1.08-5.37,1-9.35,2-5.62,1.41-8.46,2.16-10.14,4.29-.77,1-1.29,3-2.34,7-1.17,4.53-1,5.76-.39,6.63.74,1.1,1.59.9,3.51,1.94,4.16,2.25,3.41,4.92,6.63,6.24,3,1.22,4.88-.49,7,1.17,1.25,1,1.17,2.1,1.94,3.51a7.66,7.66,0,0,0,2,2.26,46.87,46.87,0,0,0,6.1-36.24Z"/></g></g></svg>